<?xml version="1.0" encoding="utf-8"?>
<!-- Generator: Adobe Illustrator 19.1.0, SVG Export Plug-In . SVG Version: 6.00 Build 0)  -->
<svg version="1.1" id="Layer_1" xmlns="http://www.w3.org/2000/svg" xmlns:xlink="http://www.w3.org/1999/xlink" x="0px" y="0px"
	 viewBox="0 0 182.2 27" enable-background="new 0 0 182.2 27" xml:space="preserve">
<g>
	<polygon fill="#673AB7" points="18,17.8 18,17.8 9,8.9 18,0 9,0 0,8.9 4.5,13.4 9,17.8 13.5,22.2 	"/>
	<polygon fill="#673AB7" points="24.4,13.4 19.9,8.9 15.4,4.5 11,8.9 19.9,17.8 19.9,17.8 19.9,17.8 10.9,26.7 19.9,26.7 24.4,22.3 
		28.9,17.8 	"/>
</g>
<g>
	<path fill="#673AB7" d="M40.1,8.9c-1.3,0-2.4,0.4-3.2,1.3c-0.8,0.9-1.2,2.1-1.2,3.7c0,1.6,0.4,2.8,1.1,3.7c0.8,0.9,1.8,1.3,3.2,1.3
		c0.9,0,1.8-0.2,2.9-0.5v1.3c-0.9,0.3-1.9,0.5-3.1,0.5c-1.8,0-3.2-0.5-4.2-1.6c-1-1.1-1.5-2.7-1.5-4.7c0-1.3,0.2-2.4,0.7-3.3
		s1.2-1.7,2-2.2s1.9-0.8,3.2-0.8c1.3,0,2.4,0.2,3.4,0.7l-0.6,1.2C42,9.2,41.1,8.9,40.1,8.9z"/>
	<path fill="#673AB7" d="M52.6,16.8c0,1.1-0.4,1.9-1.2,2.5c-0.8,0.6-1.8,0.9-3.2,0.9c-1.5,0-2.6-0.2-3.4-0.6v-1.4
		c0.5,0.2,1.1,0.4,1.6,0.5s1.2,0.2,1.8,0.2c1,0,1.7-0.2,2.1-0.5c0.5-0.4,0.7-0.9,0.7-1.5c0-0.4-0.1-0.8-0.3-1
		c-0.2-0.3-0.5-0.5-0.9-0.8c-0.4-0.2-1-0.5-1.8-0.8c-1.1-0.4-2-0.9-2.4-1.5c-0.5-0.6-0.7-1.3-0.7-2.2c0-0.9,0.4-1.7,1.1-2.3
		c0.7-0.6,1.7-0.8,2.8-0.8c1.2,0,2.3,0.2,3.4,0.7l-0.4,1.2c-1-0.4-2-0.6-3-0.6c-0.8,0-1.3,0.2-1.8,0.5c-0.4,0.3-0.6,0.8-0.6,1.4
		c0,0.4,0.1,0.8,0.2,1c0.2,0.3,0.4,0.5,0.8,0.7c0.4,0.2,0.9,0.5,1.7,0.8c1.3,0.5,2.2,1,2.7,1.5C52.4,15.3,52.6,16,52.6,16.8z"/>
	<path fill="#673AB7" d="M62.1,16.8c0,1.1-0.4,1.9-1.2,2.5c-0.8,0.6-1.8,0.9-3.2,0.9c-1.5,0-2.6-0.2-3.4-0.6v-1.4
		c0.5,0.2,1.1,0.4,1.6,0.5s1.2,0.2,1.8,0.2c1,0,1.7-0.2,2.1-0.5c0.5-0.4,0.7-0.9,0.7-1.5c0-0.4-0.1-0.8-0.3-1
		c-0.2-0.3-0.5-0.5-0.9-0.8c-0.4-0.2-1-0.5-1.8-0.8c-1.1-0.4-2-0.9-2.4-1.5c-0.5-0.6-0.7-1.3-0.7-2.2c0-0.9,0.4-1.7,1.1-2.3
		c0.7-0.6,1.7-0.8,2.8-0.8c1.2,0,2.3,0.2,3.4,0.7l-0.4,1.2c-1-0.4-2-0.6-3-0.6c-0.8,0-1.3,0.2-1.8,0.5c-0.4,0.3-0.6,0.8-0.6,1.4
		c0,0.4,0.1,0.8,0.2,1c0.2,0.3,0.4,0.5,0.8,0.7c0.4,0.2,0.9,0.5,1.7,0.8c1.3,0.5,2.2,1,2.7,1.5C61.8,15.3,62.1,16,62.1,16.8z"/>
	<path fill="#673AB7" d="M74.6,13.7c0,2-0.6,3.6-1.7,4.7c-1.1,1.1-2.7,1.7-4.8,1.7h-4V7.8h4.2c2,0,3.5,0.5,4.6,1.5
		S74.6,11.8,74.6,13.7z M71.2,13.8c0-1.1-0.2-2-0.7-2.5c-0.4-0.5-1.1-0.8-2-0.8h-1v6.9h0.7c1,0,1.7-0.3,2.2-0.9
		C71,15.9,71.2,15,71.2,13.8z"/>
	<path fill="#673AB7" d="M81.2,20.3c-1.6,0-2.8-0.4-3.7-1.3c-0.9-0.8-1.3-2-1.3-3.6c0-1.6,0.4-2.8,1.2-3.7s2-1.3,3.5-1.3
		c1.4,0,2.5,0.4,3.3,1.1s1.2,1.8,1.2,3.2v1.5h-5.9c0,0.5,0.2,0.9,0.6,1.3c0.4,0.3,0.9,0.5,1.5,0.5c0.6,0,1.1-0.1,1.6-0.2
		c0.5-0.1,1-0.3,1.6-0.6v2.4c-0.5,0.3-1,0.4-1.6,0.5C82.6,20.2,82,20.3,81.2,20.3z M81,12.7c-0.4,0-0.7,0.1-1,0.4
		c-0.3,0.2-0.4,0.6-0.5,1.1h2.8c0-0.5-0.1-0.8-0.4-1.1C81.8,12.8,81.5,12.7,81,12.7z"/>
	<path fill="#673AB7" d="M94.6,17.2c0,1-0.3,1.8-1,2.3c-0.7,0.5-1.7,0.8-3,0.8c-0.7,0-1.3,0-1.8-0.1c-0.5-0.1-1.1-0.2-1.6-0.4v-2.6
		c0.5,0.2,1.1,0.4,1.7,0.6c0.6,0.1,1.1,0.2,1.6,0.2c0.7,0,1.1-0.2,1.1-0.5c0-0.2-0.1-0.3-0.3-0.4c-0.2-0.1-0.8-0.4-1.7-0.8
		c-0.9-0.4-1.5-0.8-1.8-1.2c-0.3-0.5-0.5-1-0.5-1.7c0-0.9,0.3-1.6,1-2.1c0.7-0.5,1.6-0.7,2.9-0.7c0.6,0,1.2,0.1,1.8,0.2
		c0.6,0.1,1.1,0.3,1.7,0.6l-0.9,2.1c-0.4-0.2-0.9-0.4-1.4-0.5c-0.5-0.1-0.9-0.2-1.2-0.2c-0.5,0-0.8,0.1-0.8,0.4
		c0,0.2,0.1,0.3,0.3,0.4c0.2,0.1,0.7,0.3,1.6,0.7c0.7,0.3,1.2,0.5,1.5,0.8c0.3,0.3,0.6,0.6,0.7,0.9C94.5,16.2,94.6,16.7,94.6,17.2z"
		/>
	<path fill="#673AB7" d="M96.4,8.2c0-0.5,0.1-0.9,0.4-1.1c0.3-0.2,0.7-0.4,1.3-0.4s1.1,0.1,1.3,0.4c0.3,0.2,0.4,0.6,0.4,1.1
		c0,1-0.6,1.4-1.8,1.4C96.9,9.7,96.4,9.2,96.4,8.2z M99.7,20.1h-3.3v-9.5h3.3V20.1z"/>
	<path fill="#673AB7" d="M111,10.6v1.6l-1.3,0.5c0.2,0.3,0.3,0.7,0.3,1.1c0,1-0.4,1.8-1.1,2.4c-0.7,0.6-1.8,0.8-3.2,0.8
		c-0.4,0-0.6,0-0.8-0.1c-0.1,0.1-0.1,0.3-0.1,0.4c0,0.2,0.1,0.3,0.4,0.4c0.3,0.1,0.6,0.1,1,0.1h1.6c2.1,0,3.2,0.9,3.2,2.7
		c0,1.2-0.5,2.1-1.5,2.7c-1,0.6-2.4,1-4.2,1c-1.3,0-2.4-0.2-3.1-0.7c-0.7-0.4-1.1-1.1-1.1-1.9c0-1.1,0.7-1.9,2.1-2.2
		c-0.3-0.1-0.5-0.3-0.8-0.6c-0.2-0.3-0.3-0.5-0.3-0.8c0-0.3,0.1-0.6,0.2-0.8c0.2-0.2,0.5-0.5,1-0.8c-0.5-0.2-0.9-0.6-1.2-1
		c-0.3-0.5-0.4-1-0.4-1.7c0-1,0.4-1.8,1.1-2.4c0.7-0.6,1.7-0.9,3-0.9c0.2,0,0.5,0,0.9,0.1c0.4,0,0.7,0.1,0.9,0.1H111z M103.8,21.3
		c0,0.3,0.1,0.5,0.4,0.7c0.3,0.2,0.7,0.2,1.2,0.2c0.8,0,1.4-0.1,1.9-0.3c0.5-0.2,0.7-0.5,0.7-0.8c0-0.3-0.1-0.4-0.4-0.5
		c-0.3-0.1-0.7-0.2-1.3-0.2h-1.3c-0.4,0-0.6,0.1-0.9,0.2C103.9,20.8,103.8,21,103.8,21.3z M104.8,13.7c0,1,0.3,1.5,1,1.5
		c0.3,0,0.6-0.1,0.7-0.4c0.2-0.2,0.3-0.6,0.3-1.1c0-1-0.3-1.5-1-1.5C105.2,12.2,104.8,12.7,104.8,13.7z"/>
	<path fill="#673AB7" d="M118.4,20.1v-5.2c0-0.6-0.1-1.1-0.3-1.4c-0.2-0.3-0.5-0.5-0.9-0.5c-0.6,0-1,0.2-1.2,0.7
		c-0.2,0.4-0.4,1.2-0.4,2.3v4.2h-3.3v-9.5h2.5l0.4,1.2h0.2c0.3-0.4,0.7-0.8,1.2-1c0.5-0.2,1.1-0.3,1.7-0.3c1.1,0,1.9,0.3,2.5,0.9
		c0.6,0.6,0.9,1.5,0.9,2.6v6.2H118.4z"/>
	<path fill="#673AB7" d="M132.2,20.1l-1.5-3.9h-4.9l-1.5,3.9h-1.4l4.9-12.3h1.2l4.8,12.3H132.2z M130.2,14.9l-1.4-3.8
		c-0.2-0.5-0.4-1.1-0.6-1.8c-0.1,0.5-0.3,1.1-0.5,1.8l-1.4,3.8H130.2z"/>
	<path fill="#673AB7" d="M142.7,20.1l-1.7-5.4c-0.1-0.3-0.3-1.1-0.6-2.2h-0.1c-0.2,1-0.4,1.7-0.6,2.3l-1.7,5.4h-1.6l-2.5-9.2h1.5
		c0.6,2.3,1,4.1,1.4,5.3c0.3,1.2,0.5,2,0.5,2.4h0.1c0.1-0.3,0.2-0.7,0.3-1.2c0.1-0.5,0.3-0.9,0.4-1.2l1.7-5.3h1.5l1.6,5.3
		c0.3,1,0.5,1.8,0.6,2.4h0.1c0-0.2,0.1-0.5,0.2-0.9c0.1-0.4,0.7-2.7,1.7-6.8h1.4l-2.5,9.2H142.7z"/>
	<path fill="#673AB7" d="M154.2,20.1l-0.3-1.3h-0.1c-0.5,0.6-0.9,1-1.4,1.2c-0.5,0.2-1,0.3-1.7,0.3c-0.9,0-1.6-0.2-2.1-0.7
		c-0.5-0.5-0.8-1.1-0.8-2c0-1.9,1.5-2.8,4.5-2.9l1.6-0.1V14c0-0.7-0.2-1.3-0.5-1.6c-0.3-0.3-0.8-0.5-1.5-0.5c-0.8,0-1.6,0.2-2.6,0.7
		l-0.4-1.1c0.5-0.2,0.9-0.4,1.5-0.6c0.5-0.1,1.1-0.2,1.6-0.2c1.1,0,1.9,0.2,2.4,0.7c0.5,0.5,0.8,1.3,0.8,2.3v6.3H154.2z M151,19.1
		c0.9,0,1.5-0.2,2-0.7c0.5-0.5,0.7-1.1,0.7-2v-0.8l-1.4,0.1c-1.1,0-1.9,0.2-2.4,0.5c-0.5,0.3-0.7,0.8-0.7,1.4c0,0.5,0.2,0.9,0.5,1.1
		C150.1,19,150.5,19.1,151,19.1z"/>
	<path fill="#673AB7" d="M162.3,10.7c0.4,0,0.8,0,1.1,0.1l-0.2,1.3c-0.4-0.1-0.7-0.1-1-0.1c-0.7,0-1.4,0.3-1.9,0.9
		c-0.5,0.6-0.8,1.4-0.8,2.3v4.9h-1.4v-9.2h1.1l0.2,1.7h0.1c0.3-0.6,0.8-1.1,1.2-1.4C161.2,10.9,161.7,10.7,162.3,10.7z"/>
	<path fill="#673AB7" d="M171.4,18.9L171.4,18.9c-0.7,0.9-1.7,1.4-3,1.4c-1.2,0-2.1-0.4-2.8-1.2c-0.7-0.8-1-2-1-3.5
		c0-1.5,0.3-2.7,1-3.5c0.7-0.8,1.6-1.3,2.8-1.3c1.2,0,2.2,0.5,2.9,1.4h0.1l-0.1-0.7l0-0.6V7h1.4v13.1h-1.1L171.4,18.9z M168.6,19.1
		c1,0,1.6-0.3,2.1-0.8c0.4-0.5,0.6-1.4,0.6-2.5v-0.3c0-1.3-0.2-2.2-0.7-2.8c-0.4-0.6-1.1-0.8-2.1-0.8c-0.8,0-1.4,0.3-1.9,1
		c-0.4,0.6-0.7,1.5-0.7,2.7c0,1.2,0.2,2.1,0.6,2.7C167.1,18.8,167.7,19.1,168.6,19.1z"/>
	<path fill="#673AB7" d="M181.6,17.6c0,0.9-0.3,1.5-1,2c-0.6,0.5-1.5,0.7-2.7,0.7c-1.2,0-2.2-0.2-2.9-0.6v-1.3
		c0.4,0.2,0.9,0.4,1.4,0.5c0.5,0.1,1,0.2,1.5,0.2c0.7,0,1.3-0.1,1.7-0.3c0.4-0.2,0.6-0.6,0.6-1.1c0-0.4-0.2-0.7-0.5-0.9
		c-0.3-0.3-0.9-0.6-1.8-0.9c-0.9-0.3-1.5-0.6-1.8-0.8c-0.4-0.2-0.6-0.5-0.8-0.8c-0.2-0.3-0.3-0.7-0.3-1.1c0-0.7,0.3-1.3,0.9-1.8
		s1.4-0.7,2.5-0.7c1,0,2,0.2,2.9,0.6l-0.5,1.1c-0.9-0.4-1.8-0.6-2.5-0.6c-0.7,0-1.2,0.1-1.5,0.3s-0.5,0.5-0.5,0.9
		c0,0.2,0.1,0.5,0.2,0.6c0.1,0.2,0.3,0.3,0.6,0.5c0.3,0.2,0.8,0.4,1.6,0.7c1.1,0.4,1.8,0.8,2.2,1.2C181.4,16.5,181.6,17,181.6,17.6z
		"/>
</g>
</svg>
