<?xml version="1.0" encoding="utf-8"?>
<!-- Generator: Adobe Illustrator 19.1.0, SVG Export Plug-In . SVG Version: 6.00 Build 0)  -->
<svg version="1.1" id="Warstwa_1" xmlns="http://www.w3.org/2000/svg" xmlns:xlink="http://www.w3.org/1999/xlink" x="0px" y="0px"
	 viewBox="0 0 170 100" style="enable-background:new 0 0 170 100;" xml:space="preserve">
<style type="text/css">
	.st0{fill:#231F20;}
</style>
<g>
	<g>
		<g>
			<path class="st0" d="M36.1,77.1V51.6h5.4v20.7h6.3v4.8H36.1z"/>
			<path class="st0" d="M49.1,77.1V55.8h11.8v4.8h-6.6v3.3h6.4v4.8h-6.4v3.7h6.6v4.8H49.1z"/>
			<path class="st0" d="M79.7,77.1l0.2-16l-0.1-0.1l-4.6,16h-3.6l-4.6-16l-0.1,0.1l0.2,16h-5V55.8h7l4.2,14h0.1l4.2-14h7v21.3H79.7z
				"/>
			<path class="st0" d="M96.5,77.5c-6,0-11.2-4.7-11.2-10.8c0-1.6,0.3-3.1,0.8-4.6c0.3-0.8,0.8-1.7,1.4-2.4c2.2-2.9,5.4-4.4,9-4.4
				c6.2,0,11.3,4.8,11.3,11.1C107.8,72.7,102.8,77.5,96.5,77.5z M96.6,60.1c-3.5,0-5.8,2.9-5.8,6.2c0,3.4,2.3,6.3,5.9,6.3
				c3.4,0,5.7-3,5.7-6.3C102.4,63.1,100.1,60.1,96.6,60.1z"/>
			<path class="st0" d="M121.7,77.1l-8.1-13l-0.1,0l0.1,12.9h-5.2V55.8h4.7l8.2,13.4l0.1-0.1l-0.2-13.3h5.2v21.3H121.7z"/>
		</g>
		<g>
			<g>
				<path class="st0" d="M56.1,49.1c-1.4,1.8-3.7,2.8-6,2.8c-1,0-2-0.2-2.9-0.5c-3-1.1-4.3-3.6-4.3-6.7h5.8c0.1,1.1,0.3,2.5,1.6,2.5
					c1.6,0,1.6-1.5,1.6-2.7V26h5.4v17.1C57.4,45.1,57.4,47.5,56.1,49.1z"/>
				<path class="st0" d="M69.3,51.9c-6,0-11.2-4.7-11.2-10.8c0-1.6,0.3-3.1,0.8-4.6c0.3-0.8,0.8-1.7,1.4-2.4c2.2-2.9,5.4-4.4,9-4.4
					c6.2,0,11.3,4.8,11.3,11.1C80.6,47.2,75.5,51.9,69.3,51.9z M69.3,34.6c-3.5,0-5.8,2.9-5.8,6.2c0,3.4,2.3,6.3,5.9,6.3
					c3.4,0,5.7-3,5.7-6.3C75.1,37.6,72.8,34.6,69.3,34.6z"/>
				<path class="st0" d="M93.6,51.5V43h-7v8.5h-5.4V30.2h5.4v8h7v-8h5.4v21.3H93.6z"/>
				<path class="st0" d="M113.6,51.5l-8.1-13l-0.1,0l0.1,12.9h-5.2V30.2h4.7l8.2,13.4l0.1-0.1l-0.2-13.3h5.2v21.3H113.6z"/>
			</g>
		</g>
		<path class="st0" d="M118.1,51.8"/>
		<path class="st0" d="M118.3,30.3c0,0,0-8.5,11-8.5C129.4,21.7,129.4,30.3,118.3,30.3z"/>
	</g>
	<g>
		<path class="st0" d="M129.8,60c-1.2,0-2.1-1-2.1-2.1c0-1.2,1-2.1,2.1-2.1c1.2,0,2.1,1,2.1,2.1C131.9,59.1,131,60,129.8,60z
			 M129.8,56.2c-0.9,0-1.7,0.8-1.7,1.7c0,0.9,0.7,1.7,1.7,1.7c0.9,0,1.7-0.8,1.7-1.7C131.5,57,130.8,56.2,129.8,56.2z M130.2,59.1
			c-0.1-0.1-0.1-0.4-0.1-0.6c0-0.3-0.2-0.3-0.4-0.3h-0.2v0.9h-0.6v-2.4h1c0.4,0,0.9,0.2,0.9,0.7c0,0.3-0.1,0.5-0.4,0.6
			c0.5,0.2,0.3,0.7,0.4,1.1H130.2z M129.8,57.1h-0.3v0.7h0.3c0.2,0,0.4-0.1,0.4-0.4C130.2,57.2,130,57.1,129.8,57.1z"/>
	</g>
</g>
</svg>
